<?xml version="1.0" standalone="no"?><!DOCTYPE svg PUBLIC "-//W3C//DTD SVG 1.1//EN" "http://www.w3.org/Graphics/SVG/1.1/DTD/svg11.dtd"><svg t="1612091506088" class="icon" viewBox="0 0 5359 1024" version="1.1" xmlns="http://www.w3.org/2000/svg" p-id="1172" width="167.46875" height="32" xmlns:xlink="http://www.w3.org/1999/xlink"><defs><style type="text/css"></style></defs><path d="M1849.801532 155.168681c46.581106-5.533957 117.868936-10.762894 215.998638-10.762894 163.883574 0 296.306383 30.262468 378.357107 94.05549 73.749787 59.653447 122.836426 156.149106 109.219404 295.718127-12.593021 129.960851-75.950298 220.94434-168.393532 277.198979-84.59983 53.073702-191.24834 75.863149-351.253787 75.863149-94.60017 0-184.668596-5.446809-253.189447-16.231489l69.261617-715.841362z m135.385872 573.483574c15.926468 3.224511 36.602553 6.601532 77.627915 6.601532 163.948936 0 279.464851-85.841702 291.05566-206.521191 16.950468-174.297872-85.667404-235.323915-258.374809-234.212766-22.331915 0-53.400511 0-69.937021 3.22451l-40.371745 430.907915z m682.594043-546.162383c666.711149-132.161362 723.989787 105.537362 703.531574 315.740596l-38.890212 388.945702h-211.57583l35.404255-354.739744c7.712681-77.824 55.448511-230.879319-174.798979-225.301788-79.523404 2.113362-118.871149 13.573447-118.871149 13.573447s-7.124426 94.491234-15.51251 164.123234l-40.088511 402.388426h-207.47983l41.156085-396.505873 27.125107-308.224z" fill="#231815" p-id="1173"></path><path d="M858.417021 864.01634c-39.086298 13.70417-120.113021 23.15983-233.166978 23.15983-325.348766 0-500.910298-155.321191-480.081703-360.60051C169.984 282.035745 430.014638 144.405787 714.904511 144.405787c110.286979 0 175.191149 9.194213 235.999319 24.336341l-19.564936 164.602553c-40.458894-13.747745-135.255149-26.558638-212.098724-26.558638-167.434894 0-309.87983 50.764255-326.089532 211.33617-14.597447 143.730383 85.297021 212.20766 273.843745 212.207659 65.623149 0 162.293106-9.586383 207.022298-23.399489l-15.59966 157.085957z" fill="#CF000E" p-id="1174"></path><path d="M986.809191 688.062638c60.895319 22.484426 188.110979 44.968851 290.728852 44.968851 110.679149 0 172.380596-31.068596 177.282723-79.00051 4.48817-43.683404-40.916426-49.587745-165.953362-79.588766-172.620255-42.681191-282.820085-108.805447-272.057191-214.604256 12.571234-122.531404 175.409021-215.497532 425.156085-215.497531 121.61634 0 239.659574 8.627745 300.903489 28.977021l-21.002893 154.77651c-39.739915-14.009191-191.684085-33.290894-294.410894-33.290893-104.295489 0-158.32783 33.138383-161.988085 69.435915-4.771404 45.818553 49.54417 47.997277 184.864681 84.251234 183.317787 47.016851 263.429447 113.119319 253.145872 215.562893-12.353362 120.526979-158.72 223.079489-451.235404 223.07949-121.768851 0-226.652596-22.440851-284.475915-44.947064l19.042042-154.122894z" fill="#231815" p-id="1175"></path><path d="M3873.312681 428.315234l-49.870979 465.201021h-93.924766l49.870979-465.201021h-88.216511l9.412085-87.345021h88.216511l21.612936-201.466553h93.924766l-21.612936 201.466553h78.499404l-9.412085 87.345021h-78.499404z m539.01617 286.436766h-97.933617l-9.782468 91.397447c-4.422809 41.286809-13.813106 60.677447-45.099575 73.619064-29.543489 11.351149-68.520851 12.179064-122.727489 12.179063-0.588255-24.270979-8.627745-55.012766-16.797957-76.887148 33.116596 0.806128 69.457702 1.612255 80.02451 0.806127 10.588596-0.806128 14.09634-3.224511 15.033192-12.135489l9.542808-89.022638h-182.860255c33.225532 21.830809 70.133106 47.73583 90.874553 65.557787l-60.328851 64.751659c-24.227404-23.486638-73.575489-61.483574-109.393702-89.022638l41.613617-41.286808h-110.897021l8.34451-77.649703h331.013447l3.529532-33.138383h89.828766l-3.529532 33.138383h97.91183l-8.366298 77.693277z m-249.768851-425.570043h-202.338043l7.908766-73.619063h202.338043l8.170213-76.037447h86.582468l-8.148426 76.037447h93.053277a1699.774638 1699.774638 0 0 0-61.657872-29.129532l41.330383-53.400511a1330.633532 1330.633532 0 0 1 103.729021 44.489532l-27.604426 38.040511h54.990979l-7.865192 73.619063h-203.906723l-3.573106 33.160171h169.962212l-29.499914 275.063829h-85.798128l4.052425-37.996936h-84.12051l-3.899915 36.428256h-86.582468l3.921702-36.428256h-85.013787l-5.185362 48.541958h-82.530043l30.611064-285.587064h167.522043l3.551319-33.181958z m-22.789447 212.795915l3.289873-30.763574h-84.992l-3.289873 30.763574h84.992z m-72.486127-116.539915l-3.159149 29.129532h84.992l3.137361-29.129532h-84.970212z m243.210893 116.539915l3.289872-30.763574h-84.142297l-3.289873 30.763574h84.142298z m-71.636425-116.539915l-3.159149 29.129532h84.142298l3.137361-29.129532h-84.12051z m850.159659-6.470808c-42.681191 58.259064-96.517447 107.607149-158.48034 149.700085 80.242383 29.107745 175.060426 50.132426 278.397276 59.827745-23.334128 21.874383-54.794894 65.579574-70.656 93.053276a1266.034383 1266.034383 0 0 1-84.207659-14.575659l-24.292766 226.500085h-98.69617l2.505532-23.421277h-272.754383l-2.67983 25.033532h-93.902979l23.900596-222.469447a1634.347574 1634.347574 0 0 1-107.672511 22.636937c-6.296511-24.249191-22.244766-63.923745-36.885787-85.776341 101.833532-13.769532 204.930723-39.652766 296.393532-77.671489a540.149106 540.149106 0 0 1-65.579575-59.871319c-31.242894 19.412426-66.342128 37.234383-104.556936 54.206638-11.351149-22.636936-36.776851-56.646809-56.167489-72.006809 116.97566-42.049362 197.828085-101.964255 243.908085-161.792h-150.506213l-9.60817 89.828766h-94.687319l18.976681-177.195574h301.056a1351.832511 1351.832511 0 0 0-21.090043-52.637958l98.848681-23.443063c9.586383 23.443064 22.854809 50.982128 33.138383 76.081021h282.427915l-18.976681 177.152h-98.761532l9.60817-89.828766h-336.678127l88.695829 18.606298c-9.281362 10.523234-19.368851 21.830809-29.499914 33.16017h180.463659l16.645447-4.074213 61.374638 38.977362z m-146.976681 411.822298l7.494809-69.610213h-272.732596l-7.494808 69.610213h272.732595z m16.776171-148.893958c-46.842553-15.36-91.942128-33.138383-132.531745-54.163063a1132.631149 1132.631149 0 0 1-133.686468 54.163063h266.218213zM4749.617021 419.426043c24.053106 25.055319 54.010553 46.907915 88.390809 66.342127 37.060085-21.024681 71.04817-43.705191 99.741957-69.588425h-183.753532l-4.379234 3.246298z" fill="#666464" p-id="1176"></path></svg>