<?xml version="1.0" standalone="no"?><!DOCTYPE svg PUBLIC "-//W3C//DTD SVG 1.1//EN" "http://www.w3.org/Graphics/SVG/1.1/DTD/svg11.dtd"><svg t="1612145633670" class="icon" viewBox="0 0 3414 1024" version="1.1" xmlns="http://www.w3.org/2000/svg" p-id="14478" width="160.03125" height="48" xmlns:xlink="http://www.w3.org/1999/xlink"><defs><style type="text/css"></style></defs><path d="M1088.853333 570.026667 1088.853333 679.253333 1088.853333 791.893333 979.626667 791.893333 866.986667 791.893333 757.76 791.893333 645.12 791.893333 532.48 791.893333 423.253333 791.893333 423.253333 679.253333 423.253333 570.026667 423.253333 457.386667 423.253333 344.746667 423.253333 235.52 532.48 235.52 645.12 235.52 757.76 235.52 866.986667 235.52 866.986667 344.746667 866.986667 457.386667 866.986667 570.026667 757.76 570.026667 645.12 570.026667 645.12 457.386667 757.76 457.386667 757.76 344.746667 645.12 344.746667 532.48 344.746667 532.48 457.386667 532.48 570.026667 532.48 679.253333 645.12 679.253333 757.76 679.253333 866.986667 679.253333 979.626667 679.253333 979.626667 570.026667 979.626667 457.386667 979.626667 344.746667 979.626667 235.52 979.626667 122.88 866.986667 122.88 757.76 122.88 645.12 122.88 532.48 122.88 423.253333 122.88 310.613333 122.88 310.613333 235.52 310.613333 344.746667 310.613333 457.386667 310.613333 570.026667 310.613333 679.253333 310.613333 791.893333 310.613333 904.533333 423.253333 904.533333 532.48 904.533333 645.12 904.533333 757.76 904.533333 866.986667 904.533333 979.626667 904.533333 1088.853333 904.533333 1201.493333 904.533333 1201.493333 791.893333 1201.493333 679.253333 1201.493333 570.026667Z" p-id="14479" fill="#707070"></path><path d="M1088.853333 122.88l112.64 0 0 112.64-112.64 0 0-112.64Z" p-id="14480" fill="#707070"></path><path d="M1088.853333 361.813333l112.64 0 0 112.64-112.64 0 0-112.64Z" p-id="14481" fill="#707070"></path><path d="M1966.08 460.8 1966.08 238.933333 2136.746667 238.933333 2136.746667 406.186667 2218.666667 406.186667 2218.666667 238.933333 2218.666667 160.426667 2136.746667 160.426667 1887.573333 160.426667 1887.573333 197.973333 1887.573333 238.933333 1887.573333 460.8 1887.573333 501.76 1887.573333 542.72 2177.706667 542.72 2177.706667 771.413333 2041.173333 771.413333 2041.173333 853.333333 2177.706667 853.333333 2259.626667 853.333333 2259.626667 771.413333 2259.626667 542.72 2259.626667 522.24 2259.626667 460.8Z" p-id="14482" fill="#707070"></path><path d="M1894.4 624.64l218.453333 0 0 81.92-218.453333 0 0-81.92Z" p-id="14483" fill="#707070"></path><path d="M1532.586667 238.933333l85.333333 0-85.333333 221.866667 0 0L1532.586667 512l0 0 0 259.413333 0 61.44L1532.586667 853.333333l238.933333 0 47.786667 0 34.133333 0 0-310.613333 0-13.653333 0-68.266667-232.106667 0L1703.253333 238.933333l146.773333 0L1850.026667 160.426667l-317.44 0L1532.586667 238.933333zM1771.52 771.413333l-157.013333 0 0-232.106667 157.013333 0L1771.52 771.413333z" p-id="14484" fill="#707070"></path><path d="M2447.36 157.013333l566.613333 0 0 78.506667-566.613333 0 0-78.506667Z" p-id="14485" fill="#707070"></path><path d="M3099.306667 720.213333c0-81.92-64.853333-146.773333-146.773333-146.773333-51.2 0-95.573333 23.893333-122.88 64.853333-3.413333 6.826667-6.826667 10.24-10.24 17.066667-10.24 17.066667-13.653333 40.96-13.653333 61.44 0 3.413333 0 3.413333 0 6.826667 13.653333-20.48 30.72-37.546667 51.2-47.786667 20.48-13.653333 47.786667-20.48 75.093333-20.48 6.826667 0 10.24 0 17.066667 0l10.24 0c10.24 3.413333 20.48 3.413333 27.306667 6.826667 20.48 10.24 34.133333 34.133333 34.133333 58.026667 0 37.546667-30.72 68.266667-64.853333 68.266667l-3.413333 0c0 0 0 0 0 0l0 0-416.426667 0 116.053333-310.613333 399.36 0 0-78.506667L2423.466667 399.36 2423.466667 477.866667l139.946667 0L2447.36 785.066667l0 0 0 81.92 512 0 0 0c51.2-3.413333 98.986667-30.72 122.88-75.093333l0 0 0 0c6.826667-10.24 10.24-23.893333 13.653333-34.133333C3099.306667 747.52 3099.306667 733.866667 3099.306667 720.213333z" p-id="14486" fill="#707070"></path></svg>