<?xml version="1.0" standalone="no"?><!DOCTYPE svg PUBLIC "-//W3C//DTD SVG 1.1//EN" "http://www.w3.org/Graphics/SVG/1.1/DTD/svg11.dtd"><svg t="1612091524593" class="icon" viewBox="0 0 5461 1024" version="1.1" xmlns="http://www.w3.org/2000/svg" p-id="1556" width="170.65625" height="32" xmlns:xlink="http://www.w3.org/1999/xlink"><defs><style type="text/css"></style></defs><path d="M195.490909 791.272727c-71.369697 0-127.224242-18.618182-183.078788-58.957575v-9.309091l40.339394-83.781819c27.927273 24.824242 74.472727 52.751515 117.915152 52.751516 34.133333 0 68.266667-12.412121 68.266666-52.751516 0-34.133333-31.030303-46.545455-68.266666-62.060606-12.412121-6.206061-27.927273-12.412121-43.442425-18.618181-62.060606-31.030303-105.50303-68.266667-105.50303-145.842425 0-139.636364 133.430303-155.151515 192.387879-155.151515 62.060606 0 124.121212 15.515152 164.460606 40.339394v12.412121l-40.339394 83.781818c-31.030303-21.721212-68.266667-34.133333-105.50303-34.133333-49.648485 0-58.957576 24.824242-58.957576 46.545455 0 34.133333 31.030303 46.545455 74.472727 62.060606 9.309091 3.10303 18.618182 6.206061 27.927273 12.412121 74.472727 31.030303 117.915152 65.163636 117.915151 148.945455-3.10303 139.636364-124.121212 161.357576-198.593939 161.357575z m474.763636 0c-207.90303 0-238.933333-167.563636-238.933333-266.860606 0-117.915152 40.339394-260.654545 229.624243-260.654545 179.975758 0 217.212121 130.327273 217.212121 245.139394 0 15.515152-3.10303 43.442424-9.309091 62.060606-24.824242 0-114.812121 0-186.181818-3.103031h-99.29697v6.206061c0 27.927273 9.309091 121.018182 105.50303 121.018182 37.236364 0 71.369697-15.515152 102.4-49.648485l58.957576 71.369697v9.309091c-55.854545 40.339394-111.709091 65.163636-179.975758 65.163636z m-9.30909-425.115151c-49.648485 0-74.472727 40.339394-77.575758 121.018182v6.20606h148.945455v-6.20606c3.10303-80.678788-21.721212-121.018182-71.369697-121.018182z m499.587878 642.327272c-68.266667 0-136.533333-18.618182-192.387878-49.648484l37.236363-96.19394h6.206061c31.030303 18.618182 74.472727 43.442424 127.224242 43.442424 58.957576 0 93.090909-31.030303 93.090909-83.781818 0-6.206061 3.10303-52.751515 6.206061-83.781818v-3.10303l-12.412121-6.206061-3.103031 3.103031c-34.133333 31.030303-68.266667 58.957576-127.224242 58.957575-111.709091 0-167.563636-83.781818-167.563636-263.757575 0-127.224242 43.442424-260.654545 167.563636-260.654546 46.545455 0 93.090909 21.721212 130.327273 62.060606l3.10303 3.10303 9.309091-3.10303 9.309091-40.339394 9.309091-9.309091 127.224242 3.103031c0 18.618182-3.10303 65.163636-3.10303 89.987878v434.424243c3.10303 186.181818-167.563636 201.69697-220.315152 201.696969z m0-633.018181c-74.472727 0-74.472727 111.709091-74.472727 148.945454 0 49.648485 0 161.357576 62.060606 161.357576 24.824242 0 55.854545-18.618182 77.575758-49.648485v-3.10303l3.10303-223.418182v-3.10303c-18.618182-15.515152-43.442424-31.030303-68.266667-31.030303zM2004.557576 775.757576c0-21.721212 6.206061-316.509091 6.20606-319.612121 0-49.648485-6.206061-80.678788-46.545454-80.678788-21.721212 0-49.648485 12.412121-71.369697 31.030303l-3.10303-3.103031v369.260606H1737.69697c0-21.721212 3.10303-316.509091 3.10303-319.612121 0-49.648485-6.206061-80.678788-46.545455-80.678788-18.618182 0-49.648485 12.412121-71.369697 31.030303l-3.10303 3.103031 3.10303 369.260606h-155.151515V403.393939c0-34.133333-3.10303-99.29697-3.10303-127.224242l133.430303-3.10303 9.309091 6.20606 6.206061 43.442425 9.30909 3.10303 3.103031-3.10303c43.442424-37.236364 105.50303-62.060606 152.048485-62.060607 43.442424 0 77.575758 21.721212 96.193939 65.163637l3.10303 9.309091 6.206061-6.206061c46.545455-40.339394 108.606061-65.163636 161.357576-65.163636 74.472727 0 117.915152 52.751515 117.915151 148.945454 0 6.206061-3.10303 341.333333-3.10303 363.054546h-155.151515z m465.454545 15.515151c-207.90303 0-238.933333-167.563636-238.933333-266.860606 0-117.915152 40.339394-260.654545 229.624242-260.654545 179.975758 0 217.212121 130.327273 217.212122 245.139394 0 15.515152-3.10303 43.442424-9.309091 62.060606-24.824242 0-114.812121 0-186.181819-3.103031h-99.296969v6.206061c0 27.927273 9.309091 121.018182 105.50303 121.018182 37.236364 0 71.369697-15.515152 102.4-49.648485l58.957576 71.369697v9.309091c-55.854545 40.339394-111.709091 65.163636-179.975758 65.163636z m-9.309091-425.115151c-49.648485 0-74.472727 40.339394-77.575757 121.018182v6.20606h148.945454v-6.20606c0-80.678788-21.721212-121.018182-71.369697-121.018182zM3016.145455 775.757576c0-21.721212 6.206061-316.509091 6.20606-319.612121 0-52.751515-9.309091-80.678788-49.648485-80.678788-21.721212 0-49.648485 12.412121-77.575757 31.030303l-3.103031 3.10303 3.103031 369.260606h-155.151515V403.393939c0-34.133333-3.10303-96.193939-3.103031-127.224242l133.430303-3.10303 9.309091 6.20606 6.206061 43.442425 9.309091 3.10303 3.10303-3.10303c46.545455-37.236364 111.709091-62.060606 161.357576-62.060607 77.575758 0 117.915152 52.751515 117.915151 148.945455 0 6.206061-3.10303 341.333333-3.10303 363.054545h-158.254545v3.103031z m406.496969 0c-127.224242 0-139.636364-77.575758-139.636363-155.151515 0-21.721212 0-133.430303 3.10303-229.624243v-6.20606h-55.854546l3.103031-108.606061h55.854545V133.430303l6.206061-6.206061h145.842424c0 18.618182 0 74.472727-3.10303 142.739394v6.206061h83.781818l-3.10303 108.606061h-83.781819v6.20606c3.10303 93.090909 3.10303 192.387879 3.103031 211.006061 0 52.751515 0 71.369697 49.648485 71.369697h27.927272v96.193939l-6.20606 6.206061h-86.884849z" fill="#2c2c2c" p-id="1557"></path><path d="M3636.751515 775.757576c0-43.442424 0-291.684848 3.10303-384.775758v-6.20606h-58.957575l3.10303-108.606061h55.854545v-6.206061c0-3.10303-3.10303-86.884848-3.10303-86.884848 0-136.533333 86.884848-167.563636 158.254546-167.563636 43.442424 0 80.678788 6.206061 114.812121 21.721212v12.412121l-31.030303 86.884848c-15.515152-9.309091-31.030303-12.412121-43.442424-12.412121-34.133333 0-46.545455 24.824242-46.545455 77.575758v74.472727h89.987879l-3.103031 108.606061h-86.884848v6.20606c3.10303 89.987879 3.10303 341.333333 3.10303 384.775758h-155.151515z m397.187879 12.412121c-108.606061 0-121.018182-105.50303-121.018182-148.945455 0-161.357576 127.224242-170.666667 263.757576-179.975757h6.20606l3.103031-6.206061v-27.927272c0-37.236364-21.721212-58.957576-68.266667-58.957576-58.957576 0-111.709091 15.515152-148.945454 31.030303l-34.133334-89.987879v-6.206061c74.472727-27.927273 152.048485-40.339394 232.727273-40.339394 114.812121 0 173.769697 52.751515 173.769697 155.151516v245.139394c0 40.339394 3.10303 89.987879 3.10303 114.812121h-127.224242l-9.309091-9.309091-12.412121-40.339394-9.309091-3.10303-3.103031 3.10303c-43.442424 43.442424-89.987879 62.060606-148.945454 62.060606z m139.636364-254.448485c-77.575758 3.10303-114.812121 3.10303-114.812122 83.781818 0 62.060606 24.824242 74.472727 46.545455 74.472728 24.824242 0 55.854545-15.515152 77.575757-37.236364l3.103031-3.10303v-108.606061l-3.103031-3.10303-6.20606-3.103031c0-3.10303-3.10303-3.10303-3.10303-3.10303z m372.363636 254.448485c-83.781818 0-124.121212-49.648485-124.121212-148.945455 0-6.206061 3.10303-341.333333 3.10303-366.157575h148.945455l6.20606 6.20606c0 15.515152-3.10303 313.406061-3.10303 319.612121 0 52.751515 18.618182 80.678788 49.648485 80.678788 27.927273 0 62.060606-15.515152 83.781818-37.236363l3.10303-3.103031-3.10303-369.260606h148.945455l6.20606 6.206061V651.636364c0 40.339394 3.10303 89.987879 3.10303 114.812121h-127.224242l-9.309091-9.309091-12.412121-43.442424-12.412121-3.103031-3.103031 3.103031c-43.442424 52.751515-93.090909 74.472727-158.254545 74.472727z m409.6-12.412121c-3.10303-24.824242-3.10303-80.678788-3.10303-114.812121V152.048485c0-34.133333 0-86.884848-3.103031-114.812121l152.048485-3.103031 6.206061 6.206061v620.606061c0 37.236364 3.10303 89.987879 3.10303 114.812121h-155.151515z m400.290909 0c-127.224242 0-139.636364-77.575758-139.636364-155.151515 0-21.721212 0-133.430303 3.103031-229.624243v-6.20606h-55.854546l3.103031-108.606061h55.854545V133.430303l6.206061-6.206061h145.842424c0 18.618182 0 74.472727-3.10303 142.739394v6.206061h83.781818l-3.103031 108.606061H5368.242424v6.20606c3.10303 93.090909 3.10303 192.387879 3.103031 211.006061 0 52.751515 0 71.369697 49.648484 71.369697h27.927273v96.193939l-6.20606 6.206061h-86.884849z" fill="#009A61" p-id="1558"></path></svg>