<?xml version="1.0" standalone="no"?><!DOCTYPE svg PUBLIC "-//W3C//DTD SVG 1.1//EN" "http://www.w3.org/Graphics/SVG/1.1/DTD/svg11.dtd"><svg t="1612147359698" class="icon" viewBox="0 0 2560 1024" version="1.1" xmlns="http://www.w3.org/2000/svg" p-id="4009" width="120" height="48" xmlns:xlink="http://www.w3.org/1999/xlink"><defs><style type="text/css"></style></defs><path d="M697.6 396.8c-9.6 80 76.8 131.2 211.2 163.2 96 22.4 131.2 28.8 128 60.8-3.2 35.2-51.2 60.8-137.6 60.8-80 0-179.2-16-224-35.2l-16 118.4c44.8 16 124.8 35.2 220.8 35.2 227.2 0 339.2-80 348.8-169.6 9.6-80-54.4-128-195.2-166.4-105.6-28.8-147.2-28.8-144-64 3.2-28.8 44.8-54.4 124.8-54.4s198.4 16 227.2 25.6l16-118.4c-48-16-137.6-22.4-233.6-22.4-192 0-316.8 73.6-326.4 166.4zM2003.2 262.4l-22.4 227.2-32 291.2h160l32-294.4c6.4-51.2 12.8-121.6 12.8-121.6s32-9.6 92.8-9.6c179.2-3.2 140.8 108.8 134.4 166.4l-28.8 259.2h163.2l28.8-284.8c22.4-156.8-22.4-332.8-540.8-233.6zM1824 310.4c-64-48-169.6-70.4-300.8-70.4-76.8 0-134.4 3.2-169.6 9.6l-54.4 531.2c54.4 9.6 124.8 12.8 201.6 12.8 128 0 211.2-16 278.4-57.6 73.6-41.6 124.8-108.8 134.4-204.8 6.4-105.6-32-176-89.6-220.8z m-70.4 214.4c-9.6 89.6-102.4 153.6-230.4 153.6-32 0-48-3.2-60.8-6.4l32-320c12.8-3.2 38.4-3.2 54.4-3.2 134.4 3.2 217.6 48 204.8 176z" fill="#231916" p-id="4010"></path><path d="M9.6 518.4c-16 160 121.6 278.4 377.6 278.4 89.6 0 153.6-6.4 185.6-19.2l12.8-121.6c-35.2 9.6-112 19.2-163.2 19.2-150.4 0-227.2-54.4-217.6-163.2 12.8-124.8 124.8-163.2 256-163.2 60.8 0 134.4 9.6 166.4 19.2l16-128c-44.8-9.6-96-16-182.4-16C236.8 224 32 329.6 9.6 518.4z" fill="#C92027" p-id="4011"></path></svg>