<?xml version="1.0" standalone="no"?><!DOCTYPE svg PUBLIC "-//W3C//DTD SVG 1.1//EN" "http://www.w3.org/Graphics/SVG/1.1/DTD/svg11.dtd"><svg t="1612145582073" class="icon" viewBox="0 0 5822 1024" version="1.1" xmlns="http://www.w3.org/2000/svg" p-id="13879" width="181.9375" height="32" xmlns:xlink="http://www.w3.org/1999/xlink"><defs><style type="text/css"></style></defs><path d="M228.15127 818.586343a226.85936 226.85936 0 0 1-148.311245-47.800663 85.266046 85.266046 0 0 1-20.412175-19.378646C22.737612 705.931809 0 605.421227 0 516.796215c0-95.859707 24.029522-220.141429 88.883394-271.301057a206.705567 206.705567 0 0 1 129.190979-38.757293c32.039363 0 62.786816 4.650875 92.242359 6.717931 14.727772 2.325438 27.388488 3.358965 42.11626 4.650875A36.94862 36.94862 0 0 1 387.572938 256.605583a30.747453 30.747453 0 0 1-12.660716 25.838196 37.982148 37.982148 0 0 1-25.838196 10.335278l-25.838196-2.325438-21.704084-3.358965a705.382747 705.382747 0 0 0-83.198991-8.009841 134.358619 134.358619 0 0 0-84.4909 24.029522l-13.694244 11.368806C87.849866 354.532345 74.155622 439.281628 74.155622 516.796215s18.345119 155.029175 44.441697 189.393976l8.009841 8.009841a158.129759 158.129759 0 0 0 103.352783 29.713925 579.292351 579.292351 0 0 0 115.238354-9.043369A36.690238 36.690238 0 0 1 387.572938 766.134805a40.049204 40.049204 0 0 1-5.684403 27.388488 41.341113 41.341113 0 0 1-25.838196 14.727772 795.558051 795.558051 0 0 1-127.899069 10.335278zM599.704526 761.742312a37.207002 37.207002 0 0 1-38.757294 35.398328 36.431856 36.431856 0 0 1-36.431856-35.398328V248.595742a37.207002 37.207002 0 0 1 38.757294-36.431856 36.690238 36.690238 0 0 1 36.431856 36.431856v12.660716a645.954897 645.954897 0 0 1 205.155275-47.800662c91.208831 0 166.397981 42.116259 166.397982 183.45119v364.835326a35.398328 35.398328 0 0 1-37.723766 35.398328 35.65671 35.65671 0 0 1-36.431856-35.398328V396.906986c0-85.524428-42.116259-109.55395-92.24236-109.55395a609.006277 609.006277 0 0 0-201.796309 51.676392l-3.358966 2.325437zM1144.890459 37.756064a36.431856 36.431856 0 0 1 38.757294-35.398329 34.881564 34.881564 0 0 1 35.398328 35.398329v172.082384L1251.085444 206.737865a875.656458 875.656458 0 0 1 98.185144-8.009841 218.074373 218.074373 0 0 1 134.617001 36.431856c70.796657 51.676392 103.352783 176.73326 101.544109 271.301057 0 90.175304-30.747453 205.155275-88.883393 249.596972a260.707396 260.707396 0 0 1-158.388141 46.767134 1073.060274 1073.060274 0 0 1-157.354613-13.694243l-9.043368-2.325438a37.982148 37.982148 0 0 1-25.838196-35.398328zM1450.556316 697.663586c43.408169-41.082731 61.494906-118.597319 61.494906-190.427503a345.973443 345.973443 0 0 0-54.776975-191.461032 59.686232 59.686232 0 0 0-18.345119-19.378647 173.115912 173.115912 0 0 0-90.175304-22.737612 820.879483 820.879483 0 0 0-91.208831 8.009841l-38.757294 3.358965v434.598455a895.293487 895.293487 0 0 0 117.305409 8.00984c42.633023-1.29191 89.400158-6.976313 114.463208-29.972307zM1813.066204 760.450402a37.207002 37.207002 0 0 1-38.757294 35.398328 36.431856 36.431856 0 0 1-36.431856-35.398328v-723.469484A37.207002 37.207002 0 0 1 1776.634348 0.032298a36.690238 36.690238 0 0 1 36.431856 36.431856zM2413.029112 293.037439a178.800315 178.800315 0 0 1 16.019682 28.422015 512.113042 512.113042 0 0 1 33.07289 190.427504 760.159722 760.159722 0 0 1-7.493077 87.849866 488.858666 488.858666 0 0 1-25.838195 100.2522c-38.757294 88.883394-133.325091 116.271881-221.174957 113.946444-72.863712-2.325438-137.975966-28.422015-173.374294-82.165463l-14.727772-29.713926a533.558745 533.558745 0 0 1-32.039363-192.752941 685.487336 685.487336 0 0 1 4.650875-84.4909 376.979278 376.979278 0 0 1 28.422016-101.54411c33.072891-75.18915 108.262041-107.228513 183.451191-112.912916a208.255859 208.255859 0 0 1 37.723766 0c72.088566 2.842202 135.392146 29.197161 171.307238 82.682227z m-326.078032 61.494906a301.531746 301.531746 0 0 0-21.704084 80.873553 522.706702 522.706702 0 0 0-5.684403 72.863712 477.48986 477.48986 0 0 0 30.747453 172.082385 51.676392 51.676392 0 0 0 16.019681 22.737612c28.422015 29.713925 84.4909 37.723766 130.999653 35.398329s101.54411-22.737612 123.248195-69.504747a399.200126 399.200126 0 0 0 20.412174-80.873553 660.424286 660.424286 0 0 0 4.650876-82.165463 573.349566 573.349566 0 0 0-25.838196-155.029175 180.867371 180.867371 0 0 0-20.412175-30.747453 144.952279 144.952279 0 0 0-103.352784-36.431857c-56.844031-1.033528-126.348778 13.952626-149.08639 70.796657zM2816.36335 234.901498h234.8692a37.207002 37.207002 0 0 1 25.838196 11.368806 35.139946 35.139946 0 0 1 10.335278 27.388488 35.915092 35.915092 0 0 1-36.94862 36.431856h-24.029522a224.27554 224.27554 0 0 1 21.704085 35.398329 211.614824 211.614824 0 0 1 10.335278 84.4909 167.689891 167.689891 0 0 1-116.271881 152.703738 340.805804 340.805804 0 0 1-132.291563 16.019681 489.117048 489.117048 0 0 1-96.893235-17.053209 81.648699 81.648699 0 0 0-32.039363 21.704084c-5.684403 9.043369-3.358965 17.053209 5.684403 25.838196a200.5044 200.5044 0 0 0 108.262041 42.116259 1282.091279 1282.091279 0 0 1 155.029175 42.11626 190.169122 190.169122 0 0 1 105.936603 93.534269 115.238354 115.238354 0 0 1 12.660716 53.485065 147.277716 147.277716 0 0 1-39.790821 97.926762 219.366283 219.366283 0 0 1-148.311245 65.112254h-35.398328c-88.883394 0-152.703738-22.737612-195.078379-58.135941a190.944267 190.944267 0 0 1-51.676391-84.4909 123.506576 123.506576 0 0 1-5.684404-41.082732 218.591137 218.591137 0 0 1 8.009841-54.776975 218.591137 218.591137 0 0 1 54.776975-87.849866 113.42968 113.42968 0 0 1-49.092572-75.18915 98.443526 98.443526 0 0 1 37.723766-84.4909 184.7431 184.7431 0 0 1-41.082731-120.922757c0-65.112254 29.713925-130.999653 91.208831-155.029175a523.223466 523.223466 0 0 1 121.956285-25.838196z m-39.790822 507.462167c-18.345119-3.358965-32.039363-5.684403-43.408169-9.043369a138.49273 138.49273 0 0 0-60.461378 75.18915 86.557956 86.557956 0 0 0-2.325438 53.485066 105.936603 105.936603 0 0 0 29.713925 47.800662c28.422015 25.838196 75.18915 39.790822 145.985807 39.790822a300.239836 300.239836 0 0 0 30.747453 0 155.029175 155.029175 0 0 0 99.218672-41.082732 68.729601 68.729601 0 0 0 14.727772-69.504746 125.31525 125.31525 0 0 0-68.471219-55.810503 981.851443 981.851443 0 0 0-142.626842-38.757294z m208.772623-319.360101a93.534269 93.534269 0 0 0-50.1261-96.893234A182.417663 182.417663 0 0 0 2868.039741 310.090648a422.19612 422.19612 0 0 0-145.985806 21.704085c-30.747453 12.660716-44.441697 51.676392-45.733607 84.4909s13.694244 74.155622 45.733607 86.557956a296.880871 296.880871 0 0 0 93.534269 21.704085c60.461378 4.650875 139.009494-5.684403 163.039016-65.112254a108.003659 108.003659 0 0 0 6.717931-35.398328zM3531.564611 297.688314c-32.039363-3.358965-61.494906-6.717931-90.175303-8.009841h-37.723766c-66.145781 0-111.621006 14.727772-113.946444 69.504747-2.325438 50.1261 61.494906 82.165463 126.60716 115.238354 90.175304 47.800662 180.867371 94.567797 177.766787 200.762782a131.258035 131.258035 0 0 1-99.218672 124.281722 392.482195 392.482195 0 0 1-108.262041 13.694244 980.301151 980.301151 0 0 1-150.3783-13.694244 31.780981 31.780981 0 0 1-24.029522-16.019682 35.398328 35.398328 0 0 1-5.684403-29.713925 38.757294 38.757294 0 0 1 42.374641-30.230689 872.555874 872.555874 0 0 0 137.975966 13.694244 281.636335 281.636335 0 0 0 85.524429-11.368806 64.337108 64.337108 0 0 0 47.800662-54.00183c2.325438-59.169469-68.471219-96.893235-136.942438-132.291563-87.849866-44.441697-172.082384-88.883394-166.397981-184.7431 5.684403-112.912916 77.514588-140.301404 182.417662-140.301404h46.767135c32.039363 2.325438 75.18915 5.684403 111.621006 10.335279a38.498912 38.498912 0 0 1 32.039363 42.116259 48.059044 48.059044 0 0 1-21.704085 29.713925 43.924933 43.924933 0 0 1-18.345119 2.325438zM3829.220628 779.829049a35.65671 35.65671 0 0 1-38.757294 35.398328 34.881564 34.881564 0 0 1-35.398328-35.398328v-63.820344a36.94862 36.94862 0 0 1 74.155622 0zM4209.042107 818.586343a226.85936 226.85936 0 0 1-148.311244-47.800663 85.266046 85.266046 0 0 1-20.412175-19.378646c-36.431856-45.733607-59.169469-145.985807-59.169469-234.869201 0-95.859707 24.029522-220.141429 88.883394-271.301056a206.705567 206.705567 0 0 1 129.190979-38.757294c32.039363 0 62.786816 4.650875 92.24236 6.717931 14.727772 2.325438 27.388488 3.358965 42.116259 4.650875a36.94862 36.94862 0 0 1 33.072891 38.757294 30.747453 30.747453 0 0 1-12.660716 25.838196 37.982148 37.982148 0 0 1-25.838196 10.335278l-25.838196-2.325438-21.704085-3.358965a705.382747 705.382747 0 0 0-83.19899-8.009841 134.358619 134.358619 0 0 0-84.490901 24.029522l-13.694244 11.368806c-33.072891 39.790822-46.767135 125.31525-46.767134 201.79631s18.345119 155.029175 44.441697 189.393976l8.009841 8.009841a158.129759 158.129759 0 0 0 103.352783 29.713925 579.292351 579.292351 0 0 0 115.238354-9.043369 36.690238 36.690238 0 0 1 42.116259 32.039363 40.049204 40.049204 0 0 1-5.684403 27.388488 41.341113 41.341113 0 0 1-25.838196 14.727771 795.558051 795.558051 0 0 1-125.056868 10.076897zM4917.008674 293.037439a178.800315 178.800315 0 0 1 16.019681 28.422015 512.113042 512.113042 0 0 1 33.072891 190.427504 760.159722 760.159722 0 0 1-5.684403 88.883394 488.858666 488.858666 0 0 1-27.388488 100.2522c-38.757294 88.883394-133.325091 116.271881-221.174956 113.946443-72.863712-2.325438-137.975966-28.422015-173.374295-82.165462l-16.794827-30.489072a533.558745 533.558745 0 0 1-32.039363-192.752941 685.487336 685.487336 0 0 1 4.650875-84.4909 376.979278 376.979278 0 0 1 28.422016-101.54411c33.072891-75.18915 108.262041-107.228513 183.45119-112.912916a208.255859 208.255859 0 0 1 37.723766 0c73.89724 2.58382 137.975966 28.938779 173.115913 82.423845z m-326.078032 61.494906a301.531746 301.531746 0 0 0-21.704085 80.873553 522.706702 522.706702 0 0 0-5.684403 72.863712 477.48986 477.48986 0 0 0 30.747453 172.082385 51.676392 51.676392 0 0 0 16.019682 22.737612c28.422015 29.713925 84.4909 37.723766 130.999653 35.398329s101.54411-22.737612 123.248194-69.504747a399.200126 399.200126 0 0 0 20.412175-80.873553 660.424286 660.424286 0 0 0 4.650875-82.165463 573.349566 573.349566 0 0 0-25.838196-155.029175 180.867371 180.867371 0 0 0-20.412175-30.747453 144.952279 144.952279 0 0 0-103.352783-36.431857c-56.585649-1.033528-126.090396 13.952626-149.08639 70.796657zM5747.189907 396.906986c0-85.524428-35.398328-109.55395-77.514588-109.55395a493.509541 493.509541 0 0 0-165.364453 45.475225 359.409305 359.409305 0 0 1 5.684403 63.820343v364.835326a37.207002 37.207002 0 0 1-38.757294 35.398328 35.65671 35.65671 0 0 1-36.431856-35.398328V396.906986c0-85.524428-32.039363-109.55395-70.796657-109.55395a422.19612 422.19612 0 0 0-159.68005 49.092572v425.296704a37.207002 37.207002 0 0 1-38.757294 35.398328 35.65671 35.65671 0 0 1-36.431856-35.398328V248.595742a37.723766 37.723766 0 0 1 75.18915 0v6.717931a453.460337 453.460337 0 0 1 160.713578-42.116259 129.190979 129.190979 0 0 1 112.912916 51.676391c49.092572-21.704085 129.190979-51.676392 191.461031-51.676391 83.198991 0 151.67021 42.116259 151.67021 183.45119v364.835326a37.207002 37.207002 0 0 1-38.757294 35.398328 36.431856 36.431856 0 0 1-36.431856-35.398328z" p-id="13880" fill="#8a8a8a"></path></svg>