<?xml version="1.0" standalone="no"?><!DOCTYPE svg PUBLIC "-//W3C//DTD SVG 1.1//EN" "http://www.w3.org/Graphics/SVG/1.1/DTD/svg11.dtd"><svg t="1565938374428" class="icon" viewBox="0 0 1024 1024" version="1.1" xmlns="http://www.w3.org/2000/svg" p-id="1974" width="40" height="40" xmlns:xlink="http://www.w3.org/1999/xlink"><defs><style type="text/css"></style></defs><path d="M807.152941 144.564706l120.470588-120.470588 66.258824 60.235294-120.470588 120.470588c42.164706 72.282353 36.141176 174.682353-30.117647 234.917647l-114.447059 114.447059L451.764706 283.105882l114.447059-114.447058c66.258824-66.258824 168.658824-72.282353 240.941176-24.094118z m-361.411765 475.858823l90.352942-90.352941 66.258823 66.258824L512 680.658824l42.164706 42.164705-114.447059 120.470589c-60.235294 60.235294-150.588235 72.282353-222.870588 36.141176L90.352941 1005.929412l-60.235294-66.258824 120.470588-120.470588c-60.235294-72.282353-54.211765-180.705882 18.070589-252.988235l114.447058-114.447059 48.188236 48.188235 90.352941-90.352941 66.258823 66.258824L391.529412 560.188235l54.211764 60.235294z" p-id="1975" fill="#356cff"></path></svg>