<?xml version="1.0" standalone="no"?><!DOCTYPE svg PUBLIC "-//W3C//DTD SVG 1.1//EN" "http://www.w3.org/Graphics/SVG/1.1/DTD/svg11.dtd"><svg t="1565927247511" class="icon" viewBox="0 0 1024 1024" version="1.1" xmlns="http://www.w3.org/2000/svg" p-id="22930" width="40" height="40" xmlns:xlink="http://www.w3.org/1999/xlink"><defs><style type="text/css"></style></defs><path d="M645.476594 86.339895l11.465953-16.561931 10.828955-16.561931 24.842896-36.945847a9.55496 9.55496 0 0 0 0-13.376944 9.55496 9.55496 0 0 0-13.376944 0L649.298578 44.935067 638.469623 64.681985l-11.465952 17.198929A328.053637 328.053637 0 0 0 394.499637 78.695927L381.122692 64.681985 370.293737 44.935067 344.176846 5.441231A10.191958 10.191958 0 0 0 330.799901 0.98225a9.55496 9.55496 0 0 0 0 15.287936l24.2059 36.945847 11.465952 16.561931 10.828955 16.561931a224.223069 224.223069 0 0 0-140.139418 197.46918h552.276706a223.586071 223.586071 0 0 0-143.961402-197.46918zM394.499637 204.821403a29.938876 29.938876 0 1 1 29.938875-29.301878 29.938876 29.938876 0 0 1-29.938875 29.301878z m236.963015 0a29.938876 29.938876 0 0 1 0-59.240754 29.938876 29.938876 0 1 1 0 59.240754zM237.798288 323.302911h-3.821984v433.795198a63.699735 63.699735 0 0 0 63.699735 63.699735h45.226812a47.774802 47.774802 0 0 0 0 16.561931v127.399471a59.240754 59.240754 0 0 0 118.481508 0v-127.399471a69.432712 69.432712 0 0 0 0-16.561931h103.830569a47.774802 47.774802 0 0 0 0 16.561931v127.399471a59.240754 59.240754 0 1 0 118.481507 0v-127.399471a69.432712 69.432712 0 0 0 0-16.561931h45.226813a63.699735 63.699735 0 0 0 63.699735-63.699735V323.302911H237.798288zM135.241714 323.302911A59.240754 59.240754 0 0 0 76.00096 383.180662v254.798942a59.240754 59.240754 0 0 0 59.240754 59.240754 59.240754 59.240754 0 0 0 59.240754-59.240754V383.180662a59.240754 59.240754 0 0 0-59.240754-59.877751zM884.987599 323.302911a58.603757 58.603757 0 0 0-59.240754 59.240754v254.798941a59.240754 59.240754 0 1 0 117.844511 0V383.180662a58.603757 58.603757 0 0 0-58.603757-59.877751z" p-id="22931" fill="#356cff"></path></svg>