<?xml version="1.0" standalone="no"?><!DOCTYPE svg PUBLIC "-//W3C//DTD SVG 1.1//EN" "http://www.w3.org/Graphics/SVG/1.1/DTD/svg11.dtd"><svg t="1565924997633" class="icon" viewBox="0 0 1752 1024" version="1.1" xmlns="http://www.w3.org/2000/svg" p-id="1109" width="34.21875" height="20" xmlns:xlink="http://www.w3.org/1999/xlink"><defs><style type="text/css"></style></defs><path d="M487.368264 865.721273c-7.200288 27.509622-23.710366 36.129057-51.219988 43.329346a78.680408 78.680408 0 0 1-76.515555-21.454799L23.041153 551.002715c-30.715387-30.723075-30.715387-80.528529 0-111.253141L359.554306 103.158006a78.680408 78.680408 0 0 1 76.515556-21.454799c27.509622 7.200288 44.098114 12.849201 51.298402 40.357285 7.200288 27.509622 3.891508 45.895495-16.560817 65.648241L147.331075 495.376144l323.476372 320.567351c15.841249 14.846462 21.361009 31.439568 16.560817 49.777778z m837.921057-651.310126c-29.817465-30.872216-72.763964-69.490547-42.41451-110.293718 30.349453-40.803171 79.421502-30.776889 110.293718-0.959423l336.591567 336.591568c30.715387 30.724613 30.715387 80.530066 0 111.253141L1393.168529 887.59582c-30.872216 29.817465-67.056625 35.624745-97.406079 5.273754-30.349453-30.347916-12.88764-76.926078 29.526871-116.526895l280.886583-280.966535-280.886583-280.886582v-0.076877zM757.908757 972.492492c-9.598847 26.422583-19.293021 41.907123-42.781982 48.746091-23.488961 6.837429-55.950991-6.838967-67.270343-25.000361-11.320889-18.161393-9.600384-51.061622 0-77.484204L962.574991 53.275676c14.838775-40.846222 43.890547-63.085165 87.116877-47.090162 43.227868 15.995003 37.77576 59.982414 22.935447 100.828636l-314.718558 865.476805z" p-id="1110" fill="#ffffff"></path></svg>