<?xml version="1.0" standalone="no"?><!DOCTYPE svg PUBLIC "-//W3C//DTD SVG 1.1//EN" "http://www.w3.org/Graphics/SVG/1.1/DTD/svg11.dtd"><svg t="1565938445323" class="icon" viewBox="0 0 1024 1024" version="1.1" xmlns="http://www.w3.org/2000/svg" p-id="3395" width="40" height="40" xmlns:xlink="http://www.w3.org/1999/xlink"><defs><style type="text/css"></style></defs><path d="M511.995733 733.869084h136.532196v34.133049h-136.532196z m0 0M614.39488 648.536462h34.133049v68.266098h-34.133049z m0 0M682.660978 648.536462h34.133049v34.133049h-34.133049z m0 0M750.927076 648.536462h34.133048v34.133049h-34.133048z m0 0M238.931342 477.871218h34.133049v34.133049h-34.133049z m0 0M307.19744 477.871218h34.133049v34.133049h-34.133049z m0 0M375.463538 477.871218h34.133049v34.133049h-34.133049z m0 0M614.39488 460.804693h34.133049v68.266098h-34.133049z m0 0M682.660978 460.804693h34.133049v68.266098h-34.133049z m0 0M750.927076 460.804693h34.133048v68.266098h-34.133048z m0 0" p-id="3396" fill="#356cff"></path><path d="M819.193173 392.538596c18.849976 0 34.133049-15.283073 34.133049-34.133049v-102.399147c0-18.85851-15.283073-34.133049-34.133049-34.133049H204.798293c-18.849976 0-34.133049 15.274539-34.133049 34.133049v102.399147c0 18.849976 15.283073 34.133049 34.133049 34.133049h17.066525v17.066524h-17.066525c-18.849976 0-34.133049 15.274539-34.133049 34.133049v68.266098h34.133049v-68.266098h614.39488v102.399147H511.995733v34.133048h187.731769v17.066525h-187.731769v34.133049h307.19744v51.199573h34.133049v-51.199573c0-18.85851-15.283073-34.133049-34.133049-34.133049h-17.066524v-17.066525h17.066524c18.849976 0 34.133049-15.283073 34.133049-34.133048v-102.399147c0-18.85851-15.283073-34.133049-34.133049-34.133049h-17.066524v-17.066524z m-51.199573 204.798293h-34.133049v-17.066525h34.133049z m-563.195307-341.330489h614.39488v102.399147H204.798293z m494.929209 136.532196v17.066524H324.263964v-17.066524z m-443.729635 0h34.133049v17.066524h-34.133049z m511.995733 17.066524h-34.133049v-17.066524h34.133049z m0 0" p-id="3397" fill="#356cff"></path><path d="M238.931342 290.139449h34.133049v34.133049h-34.133049z m0 0M307.19744 290.139449h34.133049v34.133049h-34.133049z m0 0M375.463538 290.139449h34.133049v34.133049h-34.133049z m0 0M614.39488 273.072924h34.133049v68.266098h-34.133049z m0 0M682.660978 273.072924h34.133049v68.266098h-34.133049z m0 0M750.927076 273.072924h34.133048v68.266098h-34.133048z m0 0M426.663111 546.137316H51.199573c-28.274964 0-51.199573 22.916076-51.199573 51.199573v375.463538c0 28.274964 22.924609 51.199573 51.199573 51.199573h375.463538c28.274964 0 51.199573-22.924609 51.199573-51.199573v-375.463538c0-28.283498-22.924609-51.199573-51.199573-51.199573z m-375.463538 34.133048h375.463538a17.066524 17.066524 0 0 1 17.066525 17.066525v51.199573H34.133049v-51.199573a17.066524 17.066524 0 0 1 17.066524-17.066525z m375.463538 409.596587H51.199573a17.066524 17.066524 0 0 1-17.066524-17.066524v-290.130916h409.596587v290.130916a17.066524 17.066524 0 0 1-17.066525 17.066524z m0 0" p-id="3398" fill="#356cff"></path><path d="M68.266098 597.336889h34.133049v34.133049H68.266098z m0 0M136.532196 597.336889h34.133048v34.133049H136.532196z m0 0M204.798293 597.336889h34.133049v34.133049H204.798293z m0 0M141.532687 773.002625l-51.199573 51.199573c-6.658078 6.655945-6.658078 17.465454 0 24.132066l51.199573 51.199573 24.132066-24.132065-39.133541-39.133541 39.133541-39.13354z m0 0M205.890551 898.533312l51.182507-136.540729 31.957067 11.984967-51.182507 136.532196z m0 0M336.329997 773.002625l-24.132065 24.132066 39.13354 39.13354-39.13354 39.133541 24.132065 24.132065 51.199574-51.199573c6.658078-6.666611 6.658078-17.473988 0-24.132066z m0 0M936.167132 103.448738c-11.741769-60.223498-64.598928-103.615137-125.948817-103.414605-61.349889 0.198398-113.914784 43.939901-125.27469 104.231665-55.090741-10.617512-108.472696 25.083524-119.700335 80.056933l33.435454 6.826609C605.236556 159.399205 633.168057 136.600462 665.594453 136.540729c9.407922 0.017067 18.709177 1.990383 27.306439 5.800485a17.066524 17.066524 0 0 0 23.893135-15.359872c1.382388-49.61452 41.158057-89.573654 90.766177-91.19924 49.60812-1.61492 91.907501 35.669036 96.523995 85.091557a17.066524 17.066524 0 0 0 17.066525 15.765202h1.092257c36.650361 1.585053 65.490654 31.844001 65.315723 68.526363s-29.307489 66.666111-65.966384 67.9077h-34.133049v34.133049h34.133049c53.725419 0 98.315981-41.507921 102.149549-95.098941 3.833568-53.582487-34.399713-101.025291-87.574737-108.658294z m0 0M972.791893 716.80256H699.727502a17.066524 17.066524 0 0 0-17.066524 17.066524v238.931343a17.066524 17.066524 0 0 0 17.066524 17.066524h273.064391a17.066524 17.066524 0 0 0 17.066525-17.066524v-238.931343a17.066524 17.066524 0 0 0-17.066525-17.066524z m-17.066524 238.931342H716.794027v-204.798293h238.931342z m0 0" p-id="3399" fill="#356cff"></path><path d="M803.101574 919.892068a34.03065 34.03065 0 0 0 35.016242-1.706653l54.617145-36.368763a34.143715 34.143715 0 0 0 0-56.799527l-54.617145-36.364497a34.098916 34.098916 0 0 0-34.990642-1.708786 34.126649 34.126649 0 0 0-18.06705 30.01575v72.741794a34.143715 34.143715 0 0 0 18.04145 30.190682z m16.091599-102.932476l54.617145 36.37303L819.193173 889.818718z m0 0M34.133049 443.738169h102.399147v-34.133049H51.199573v-375.463538h204.798294v68.266098a17.066524 17.066524 0 0 0 17.066524 17.066524h51.199573v68.266098h34.133049v-85.332622c0-3.882634-1.316256-7.641536-3.741835-10.666578l-68.266098-85.332622a17.021725 17.021725 0 0 0-13.324689-6.399947H34.133049a17.066524 17.066524 0 0 0-17.066525 17.066525v409.596586a17.066524 17.066524 0 0 0 17.066525 17.066525zM290.130916 65.725319l15.701202 19.615836H290.130916z m0 0" p-id="3400" fill="#356cff"></path><path d="M85.332622 85.341155h136.532196v34.133049H85.332622z m0 0M85.332622 153.607253h136.532196v34.133049H85.332622z m0 0" p-id="3401" fill="#356cff"></path></svg>